<?xml version="1.0" encoding="UTF-8" standalone="no"?><!DOCTYPE svg PUBLIC "-//W3C//DTD SVG 1.1//EN" "http://www.w3.org/Graphics/SVG/1.1/DTD/svg11.dtd"><svg width="100%" height="100%" viewBox="0 0 48 48" version="1.1" xmlns="http://www.w3.org/2000/svg" xmlns:xlink="http://www.w3.org/1999/xlink" xml:space="preserve" xmlns:serif="http://www.serif.com/" style="fill-rule:evenodd;clip-rule:evenodd;stroke-linejoin:round;stroke-miterlimit:2;"><rect id="Artboard1" x="0" y="0" width="48" height="48" style="fill:none;"/><g id="Artboard11" serif:id="Artboard1"><circle cx="24" cy="24" r="23.389" style="fill:#23d500;"/><g><path d="M41.4,24c0,1.227 -0.996,2.222 -2.222,2.222l-30.356,0c-1.226,0 -2.222,-0.995 -2.222,-2.222c0,-1.227 0.996,-2.222 2.222,-2.222l30.356,-0c1.226,-0 2.222,0.995 2.222,2.222Z" style="fill:#fff;"/><path d="M24,6.6c1.227,-0 2.222,0.996 2.222,2.222l0,30.356c0,1.226 -0.995,2.222 -2.222,2.222c-1.227,-0 -2.222,-0.996 -2.222,-2.222l-0,-30.356c-0,-1.226 0.995,-2.222 2.222,-2.222Z" style="fill:#fff;"/></g></g></svg>